# xmcd
#
# Track frame offsets: 
#        150
#        16559
#        32373
#        53132
#        69074
#        87909
#        103982
#        127696
#        144339
#        160829
#        181934
#        196915
#        214860
#        228779
#
# Disc length: 3278 seconds
#
# Revision: 1
# Processed by: cddbd v1.5.2PL0 Copyright (c) Steve Scherf et al.
# Submitted via: ExactAudioCopy v1.3
#
DISCID=a20ccc0e
DTITLE=Johnny Hallyday - Rester vivant
DYEAR=2014
DGENRE=Blues
TTITLE0=J'ai ce que j'ai donné
TTITLE1=Regarde-nous
TTITLE2=Rester vivant
TTITLE3=Seul
TTITLE4=Au café de l'avenir
TTITLE5=Une lettre à l'enfant que j'étais
TTITLE6=J't'ai même pas dit merci
TTITLE7=Si j'avais su la vie
TTITLE8=On s'habitue à tout
TTITLE9=Te manquer
TTITLE10=Te voir grandir
TTITLE11=A nos promesses
TTITLE12=On s'accroche
TTITLE13=Je t'attendrai
EXTD=
EXTT0=
EXTT1=
EXTT2=
EXTT3=
EXTT4=
EXTT5=
EXTT6=
EXTT7=
EXTT8=
EXTT9=
EXTT10=
EXTT11=
EXTT12=
EXTT13=
PLAYORDER=
